<svg xmlns="http://www.w3.org/2000/svg" xmlns:xlink="http://www.w3.org/1999/xlink" version="1.1" id="Layer_1" x="0px" y="0px" viewBox="0 0 507.6 165.1" style="enable-background:new 0 0 507.6 165.1;" xml:space="preserve">
<style type="text/css">
	.st0{fill:#1C1919;}
</style>
<g>
	<path class="st0" d="M41.4,0.8h13.5c6.2,0,11.2,2.8,11.2,10.1c0,5.1-2,8.2-6.2,9.5v0.1c4.6,0.8,7.5,3.6,7.5,10.7   c0,7-5,11.4-12.9,11.4H41.4V0.8z M53.3,18.4c4,0,6.2-2.7,6.2-6.6c0-5-3-6-6.7-6h-4.7v12.6H53.3z M54.7,37.6c4,0,6.2-2.6,6.2-7.4   c0-4.5-2.7-7.1-6.6-7.1H48v14.5H54.7z"/>
	<path class="st0" d="M73.3,0.8h22.6v5.6H80V18h15v5.6H80V37h16.4v5.6H73.3V0.8z"/>
	<path class="st0" d="M101.8,0.8h8.1L122,32h0.1V0.8h6.3v41.8h-8.1l-12.1-32h-0.1v32h-6.3C101.8,42.6,101.8,0.8,101.8,0.8z"/>
	<path class="st0" d="M139.8,30v2.1c0,3.5,0.7,6.3,4.4,6.3c4.4,0,4.4-4.1,4.4-8.3V0.8h6.7v30.3c0,9.2-4.6,12.4-11.2,12.4   c-8.6-0.1-10.5-5.2-10.7-10.7V30H139.8L139.8,30z"/>
	<path class="st0" d="M170.4,0.8h8.6l11,41.8h-7l-2.6-10.2h-12.2l-2.7,10.2h-7L170.4,0.8z M179.3,27l-4.8-20.6h-0.1l-5,20.6H179.3z"/>
	<path class="st0" d="M194.3,0.8h10.4l7.4,31h0.1l7.3-31h10.2v41.8h-6.3V7.8h-0.1l-8.4,34.8h-5.6l-8.4-34.8h-0.1v34.8h-6.3   L194.3,0.8L194.3,0.8z"/>
	<path class="st0" d="M236.9,0.8h6.7v41.8h-6.7V0.8z"/>
	<path class="st0" d="M250.7,0.8h8.1L271,32h0.1V0.8h6.3v41.8h-8.1l-12.1-32H257v32h-6.3V0.8L250.7,0.8z"/>
	<path class="st0" d="M300.1,0.8h22.6v5.6h-15.9V18h15v5.6h-15V37h16.4v5.6h-23.1V0.8z"/>
	<path class="st0" d="M328.6,0.8h11.9c13.1,0,14.8,8.6,14.8,20.9s-1.6,20.9-14.8,20.9h-11.9V0.8z M335.3,37.6h5.5   c5.5,0,7.8-3.6,7.8-15.9c0-11.8-2-15.9-7.8-15.9h-5.5V37.6z"/>
	<path class="st0" d="M382.3,37.8h-0.1c-1.8,3.9-4.2,5.7-9.1,5.7c-9.1,0-12.4-6.8-12.4-21.7s4.2-21.7,13.9-21.7   c10.5,0,12.2,8.2,12.2,12.1V13h-6.3v-1c0-3.1-1.3-6.8-5.9-6.8c-4.7,0-7.3,3.2-7.3,16.5c0,13.5,2.2,16.9,6.7,16.9   c5.1,0.1,7-3.6,7-12.8h-7v-5h13.4v22h-5v-5H382.3z"/>
	<path class="st0" d="M403,0.8h8.5l11,41.8h-7l-2.6-10.2h-12.2L398,42.6h-7L403,0.8z M411.9,27l-4.8-20.6H407L402,27H411.9z"/>
	<path class="st0" d="M427,0.8h14.8c5.9,0,10.6,2.9,10.6,10.8c0,5.4-2.4,9.5-7,10.2V22c4.2,0.4,6.3,2.7,6.6,8.6   c0.1,2.7,0.1,6,0.2,8.5c0.1,2,1.1,3,2,3.6h-7.5c-0.6-0.8-0.9-2-1.1-3.7c-0.2-2.5-0.2-4.9-0.3-7.9c-0.1-4.6-1.5-6.6-6.1-6.6h-5.4   v18.2H427V0.8L427,0.8z M439,19.4c4.3,0,6.7-2.6,6.7-6.8c0-4.4-1.9-6.8-6.3-6.8h-5.7v13.6H439z"/>
	<path class="st0" d="M459.9,36.3c0.7-0.8,1.6-1.2,2.8-1.2c1.2,0,2.3,0.6,3.1,1.7c0.8,1.1,1.3,2.6,1.3,4.5c0,1.5-0.2,2.9-0.7,4.2   s-1.2,2.6-2.2,3.8c-1.7,2.2-3,3.3-3.8,3.3c-0.5,0-0.8-0.3-0.8-0.8c0-0.3,0.2-0.7,0.7-1.1s1-0.9,1.5-1.5s1-1.2,1.5-2   s0.7-1.7,0.7-2.7c0-0.5,0-0.8-0.1-0.9s-0.2-0.2-0.4-0.3c-0.2,0-0.5-0.1-0.8-0.1s-0.7-0.1-1.2-0.2c-0.8-0.2-1.4-0.6-1.8-1.2   c-0.4-0.6-0.6-1.4-0.6-2.3C458.8,38.1,459.2,37.1,459.9,36.3z"/>
	<path class="st0" d="M11.9,61.6h8.6l11,41.8h-7l-2.6-10.2H9.7L7,103.4H0L11.9,61.6z M20.8,87.9L16,67.2h-0.1l-5,20.6h9.9V87.9z"/>
	<path class="st0" d="M35.8,61.6h8.1L56,92.8h0.1V61.6h6.3v41.8h-8.1l-12.1-32h-0.1v32h-6.3V61.6z"/>
	<path class="st0" d="M84.2,82.5c0-14.9,4.2-21.7,13.8-21.7s13.8,6.8,13.8,21.7s-4.2,21.7-13.8,21.7S84.2,97.5,84.2,82.5z    M105.2,82.3c0-14.1-3.2-16.5-7.1-16.5c-4,0-7.1,2.5-7.1,16.5c0,14.4,3.2,16.9,7.1,16.9S105.2,96.8,105.2,82.3z"/>
	<path class="st0" d="M118.2,61.6h13.5c6.2,0,11.2,2.8,11.2,10.1c0,5.1-2,8.2-6.1,9.5v0.1c4.6,0.8,7.5,3.6,7.5,10.7   c0,7-5,11.4-12.9,11.4h-13.2V61.6z M130.1,79.2c4,0,6.1-2.7,6.1-6.6c0-5-3-6-6.7-6h-4.7v12.6H130.1z M131.5,98.4   c4,0,6.1-2.6,6.1-7.4c0-4.5-2.7-7.1-6.6-7.1h-6.2v14.5H131.5z"/>
	<path class="st0" d="M154.9,90.8v2.1c0,3.4,0.7,6.3,4.4,6.3c4.4,0,4.4-4.1,4.4-8.3V61.6h6.7v30.3c0,9.2-4.6,12.4-11.2,12.3   c-8.6-0.1-10.5-5.2-10.7-10.7v-2.7H154.9L154.9,90.8z"/>
	<path class="st0" d="M177.7,61.6h22.6v5.6h-15.9v11.6h15v5.6h-15v13.3h16.4v5.6h-23.1V61.6L177.7,61.6z"/>
	<path class="st0" d="M231.6,88.4v0.9c0,7.6-3,14.9-12.9,14.9c-10.5,0-13.8-6.8-13.8-21.7s3.3-21.7,13.9-21.7   c11.9,0,12.6,8.8,12.6,13.1v0.8h-6.7V74c0-3.9-1.2-8.3-6-8.1c-4.9,0-7.1,3-7.1,16.5s2.2,16.9,7.1,16.9c5.6,0,6.2-6.2,6.2-10.1v-0.7   C225,88.4,231.6,88.4,231.6,88.4z"/>
	<path class="st0" d="M244.7,67.2h-9.9v-5.6h26.4v5.6h-9.8v36.2h-6.7L244.7,67.2L244.7,67.2z"/>
	<path class="st0" d="M306.5,88.4v0.9c0,7.6-3,14.9-12.9,14.9c-10.5,0-13.8-6.8-13.8-21.7s3.3-21.7,13.9-21.7   c11.9,0,12.6,8.8,12.6,13.1v0.8h-6.7V74c0-3.9-1.2-8.3-6-8.1c-4.9,0-7.1,3-7.1,16.5s2.2,16.9,7.1,16.9c5.6,0,6.2-6.2,6.2-10.1v-0.7   C299.8,88.4,306.5,88.4,306.5,88.4z"/>
	<path class="st0" d="M311.1,82.5c0-14.9,4.2-21.7,13.8-21.7s13.8,6.8,13.8,21.7s-4.2,21.7-13.8,21.7S311.1,97.5,311.1,82.5z    M332.1,82.3c0-14.1-3.2-16.5-7.1-16.5s-7.1,2.5-7.1,16.5c0,14.4,3.2,16.9,7.1,16.9S332.1,96.8,332.1,82.3z"/>
	<path class="st0" d="M345.1,61.6h10.4l7.4,31h0.1l7.3-31h10.2v41.8h-6.3V68.7H374l-8.4,34.8H360l-8.4-34.8h-0.1v34.8h-6.3   L345.1,61.6L345.1,61.6z"/>
	<path class="st0" d="M387.9,61.6h13.2c8,0,11.5,5,11.5,12.2c0,7.5-4.4,12.3-12.2,12.3h-5.9v17.3h-6.7L387.9,61.6L387.9,61.6z    M394.5,81.1h4.7c3.6,0,6.7-1.9,6.7-7.2c0-4.5-1.8-7.3-7.1-7.3h-4.3L394.5,81.1L394.5,81.1z"/>
	<path class="st0" d="M423.8,61.6h8.5l11,41.8h-7l-2.6-10.2h-12.2l-2.7,10.2h-7L423.8,61.6z M432.7,87.9l-4.8-20.6h-0.1l-5,20.6   H432.7z"/>
	<path class="st0" d="M447.7,61.6h8.1L468,92.8h0.1V61.6h6.3v41.8h-8.1l-12.1-32H454v32h-6.3V61.6z"/>
	<path class="st0" d="M489.7,87.1l-10.8-25.5h7.4l7,18l7.2-18h7l-11.2,25.5v16.3h-6.7V87.1H489.7z"/>
	<path class="st0" d="M101.2,121.6c12,0,21.7,9.7,21.7,21.7s-9.7,21.7-21.7,21.7s-21.7-9.7-21.7-21.7   C79.4,131.3,89.1,121.6,101.2,121.6z M119,143.3c0-10.1-8-18.2-17.9-18.2s-17.9,8.1-17.9,18.2c0,10.1,8,18.2,17.9,18.2   S119,153.4,119,143.3z M113,147.9c-0.8,6-5.7,9.1-11.5,9.1c-8,0-12.8-5.6-12.8-13.5s4.9-13.5,12.8-13.5c5.8,0,10.7,3,11.5,9.1h-3.5   c-0.6-3.1-3.7-5.6-8-5.6c-5.5,0-9,4.4-9,9.9s3.4,9.9,9,9.9c4.3,0,7.4-2.5,8-5.6h3.5V147.9z"/>
	<path class="st0" d="M166.5,164.2h-24.2c0-18,17.4-17.6,17.4-30.5c0-3.4-1.5-6.3-5.1-6.3c-5,0-5.8,4.5-5.8,8.7h-6.3   c0-8.2,3.4-13.3,12.2-13.3c8.5,0,11.7,5,11.7,11.1c0,13.8-13.5,14.6-16.6,24.8h16.8L166.5,164.2L166.5,164.2z"/>
	<path class="st0" d="M183.3,122.8c8,0,12.4,5,12.4,21.1s-4.4,21.1-12.4,21.1s-12.4-5-12.4-21.1   C170.9,127.8,175.3,122.8,183.3,122.8z M183.3,160.4c4.6,0,5.7-4.4,5.7-16.4s-1.2-16.4-5.7-16.4s-5.7,4.4-5.7,16.4   S178.7,160.4,183.3,160.4z"/>
	<path class="st0" d="M212.6,122.8c8,0,12.4,5,12.4,21.1s-4.4,21.1-12.4,21.1s-12.4-5-12.4-21.1   C200.2,127.8,204.7,122.8,212.6,122.8z M212.6,160.4c4.6,0,5.7-4.4,5.7-16.4s-1.2-16.4-5.7-16.4s-5.7,4.4-5.7,16.4   C206.9,156,208.1,160.4,212.6,160.4z"/>
	<path class="st0" d="M236.8,155c0,2.4,1.1,5.4,4.4,5.4c6.3,0,6.6-8.2,6.6-14.3l-0.2-0.1c-1.6,3-4.4,4.4-8.1,4.4   c-5.7,0-10.2-4.1-10.2-12.4c0-9.5,3.9-15.2,12.7-15.2c10.5,0,12.5,8,12.5,19.9c0,12.4-2.3,22.4-13.2,22.4   c-7.3,0-11.2-3.3-11.2-10.1L236.8,155L236.8,155z M241.6,127.5c-4.1,0-5.5,4-5.5,8.9c0,5.7,1.7,9,5.5,9c4.9,0,5.7-4.3,5.7-9.2   S245.5,127.5,241.6,127.5z"/>
	<path class="st0" d="M259,144.5h58.5v5.6H259V144.5z"/>
	<path class="st0" d="M329.2,149.5c0-8.4,8.5-8.2,8.5-16.6c0-3.3-1.1-6.2-4.7-6.2c-4,0-5.3,3.3-5.3,8.3h-6.3   c0-7.4,3.1-13.3,11.5-13.3c7.3,0,11.5,4,11.5,11.2c0,9.9-9.2,11.6-9.2,17.7v2.5h-6V149.5L329.2,149.5z M328.8,157.6h6.7v6.7h-6.7   V157.6z"/>
	<path class="st0" d="M357.1,149.5c0-8.4,8.5-8.2,8.5-16.6c0-3.3-1.1-6.2-4.7-6.2c-4,0-5.3,3.3-5.3,8.3h-6.3   c0-7.4,3.1-13.3,11.5-13.3c7.3,0,11.5,4,11.5,11.2c0,9.9-9.2,11.6-9.2,17.7v2.5h-6V149.5z M356.7,157.6h6.7v6.7h-6.7V157.6z"/>
	<path class="st0" d="M385,149.5c0-8.4,8.5-8.2,8.5-16.6c0-3.3-1.1-6.2-4.7-6.2c-4,0-5.3,3.3-5.3,8.3h-6.3c0-7.4,3.1-13.3,11.5-13.3   c7.3,0,11.5,4,11.5,11.2c0,9.9-9.2,11.6-9.2,17.7v2.5h-6V149.5z M384.6,157.6h6.7v6.7h-6.7V157.6z"/>
	<path class="st0" d="M412.9,149.5c0-8.4,8.5-8.2,8.5-16.6c0-3.3-1.1-6.2-4.7-6.2c-4,0-5.3,3.3-5.3,8.3h-6.3   c0-7.4,3.1-13.3,11.5-13.3c7.3,0,11.5,4,11.5,11.2c0,9.9-9.2,11.6-9.2,17.7v2.5h-6V149.5L412.9,149.5z M412.5,157.6h6.7v6.7h-6.7   V157.6z"/>
</g>
</svg>